<svg xmlns="http://www.w3.org/2000/svg" xmlns:xlink="http://www.w3.org/1999/xlink" width="500" zoomAndPan="magnify" viewBox="0 0 375 374.999991" height="500" preserveAspectRatio="xMidYMid meet" version="1.0"><defs><clipPath id="8f0a89c9db"><path d="M 188.054688 242.875 L 189.285156 242.875 L 189.285156 244.105469 L 188.054688 244.105469 Z M 188.054688 242.875 " clip-rule="nonzero"/></clipPath><clipPath id="188dd62fc7"><path d="M 188.671875 242.875 C 188.332031 242.875 188.054688 243.148438 188.054688 243.488281 C 188.054688 243.832031 188.332031 244.105469 188.671875 244.105469 C 189.011719 244.105469 189.285156 243.832031 189.285156 243.488281 C 189.285156 243.148438 189.011719 242.875 188.671875 242.875 " clip-rule="nonzero"/></clipPath><clipPath id="e106951279"><path d="M 94.304688 177 L 105 177 L 105 198 L 94.304688 198 Z M 94.304688 177 " clip-rule="nonzero"/></clipPath><clipPath id="7853f76b4a"><path d="M 128.683594 177 L 140 177 L 140 198 L 128.683594 198 Z M 128.683594 177 " clip-rule="nonzero"/></clipPath><clipPath id="e204f9af47"><path d="M 162.824219 177 L 174 177 L 174 198 L 162.824219 198 Z M 162.824219 177 " clip-rule="nonzero"/></clipPath><clipPath id="852a49c738"><path d="M 197.203125 177 L 208 177 L 208 198 L 197.203125 198 Z M 197.203125 177 " clip-rule="nonzero"/></clipPath><clipPath id="88a7965a1d"><path d="M 231.339844 176 L 242 176 L 242 198 L 231.339844 198 Z M 231.339844 176 " clip-rule="nonzero"/></clipPath><clipPath id="2d6ec30599"><path d="M 265.71875 176 L 277 176 L 277 198 L 265.71875 198 Z M 265.71875 176 " clip-rule="nonzero"/></clipPath></defs><rect x="-37.5" width="450" fill="#ffffff" y="-37.499999" height="449.999989" fill-opacity="1"/><rect x="-37.5" width="450" fill="#ffffff" y="-37.499999" height="449.999989" fill-opacity="1"/><rect x="-37.5" width="450" fill="#000000" y="-37.499999" height="449.999989" fill-opacity="1"/><g clip-path="url(#8f0a89c9db)"><g clip-path="url(#188dd62fc7)"><path fill="#000000" d="M 188.054688 242.875 L 189.285156 242.875 L 189.285156 244.105469 L 188.054688 244.105469 Z M 188.054688 242.875 " fill-opacity="1" fill-rule="nonzero"/></g></g><g clip-path="url(#e106951279)"><path fill="#ffffff" d="M 99.597656 177.449219 C 96.773438 177.449219 94.480469 179.734375 94.480469 182.554688 L 94.480469 192.882812 C 94.480469 195.703125 96.773438 197.988281 99.597656 197.988281 C 102.425781 197.988281 104.71875 195.703125 104.71875 192.882812 L 104.71875 182.554688 C 104.71875 179.734375 102.425781 177.449219 99.597656 177.449219 Z M 99.597656 177.449219 " fill-opacity="1" fill-rule="nonzero"/></g><path fill="#ffffff" d="M 116.296875 160.726562 C 113.472656 160.726562 111.179688 163.011719 111.179688 165.832031 L 111.179688 209.605469 C 111.179688 212.425781 113.472656 214.710938 116.296875 214.710938 C 119.121094 214.710938 121.417969 212.425781 121.417969 209.605469 L 121.417969 165.832031 C 121.417969 163.011719 119.125 160.726562 116.296875 160.726562 Z M 116.296875 160.726562 " fill-opacity="1" fill-rule="nonzero"/><g clip-path="url(#7853f76b4a)"><path fill="#ffffff" d="M 133.976562 177.449219 C 131.152344 177.449219 128.859375 179.734375 128.859375 182.554688 L 128.859375 192.882812 C 128.859375 195.703125 131.152344 197.988281 133.976562 197.988281 C 136.804688 197.988281 139.097656 195.703125 139.097656 192.882812 L 139.097656 182.554688 C 139.097656 179.734375 136.804688 177.449219 133.976562 177.449219 Z M 133.976562 177.449219 " fill-opacity="1" fill-rule="nonzero"/></g><path fill="#ffffff" d="M 150.675781 160.726562 C 147.851562 160.726562 145.558594 163.011719 145.558594 165.832031 L 145.558594 209.605469 C 145.558594 212.425781 147.851562 214.710938 150.675781 214.710938 C 153.503906 214.710938 155.796875 212.425781 155.796875 209.605469 L 155.796875 165.832031 C 155.796875 163.011719 153.503906 160.726562 150.675781 160.726562 Z M 150.675781 160.726562 " fill-opacity="1" fill-rule="nonzero"/><g clip-path="url(#e204f9af47)"><path fill="#ffffff" d="M 168.117188 177.449219 C 165.289062 177.449219 162.996094 179.734375 162.996094 182.554688 L 162.996094 192.882812 C 162.996094 195.703125 165.289062 197.988281 168.117188 197.988281 C 170.941406 197.988281 173.234375 195.703125 173.234375 192.882812 L 173.234375 182.554688 C 173.234375 179.734375 170.941406 177.449219 168.117188 177.449219 Z M 168.117188 177.449219 " fill-opacity="1" fill-rule="nonzero"/></g><path fill="#ffffff" d="M 184.816406 160.726562 C 181.988281 160.726562 179.695312 163.011719 179.695312 165.832031 L 179.695312 209.605469 C 179.695312 212.425781 181.988281 214.710938 184.816406 214.710938 C 187.640625 214.710938 189.933594 212.425781 189.933594 209.605469 L 189.933594 165.832031 C 189.933594 163.011719 187.640625 160.726562 184.816406 160.726562 Z M 184.816406 160.726562 " fill-opacity="1" fill-rule="nonzero"/><g clip-path="url(#852a49c738)"><path fill="#ffffff" d="M 202.496094 177.449219 C 199.667969 177.449219 197.375 179.734375 197.375 182.554688 L 197.375 192.882812 C 197.375 195.703125 199.667969 197.988281 202.496094 197.988281 C 205.320312 197.988281 207.613281 195.703125 207.613281 192.882812 L 207.613281 182.554688 C 207.613281 179.734375 205.320312 177.449219 202.496094 177.449219 Z M 202.496094 177.449219 " fill-opacity="1" fill-rule="nonzero"/></g><path fill="#ffffff" d="M 219.195312 160.726562 C 216.367188 160.726562 214.074219 163.011719 214.074219 165.832031 L 214.074219 209.605469 C 214.074219 212.425781 216.367188 214.710938 219.195312 214.710938 C 222.019531 214.710938 224.3125 212.425781 224.3125 209.605469 L 224.3125 165.832031 C 224.3125 163.011719 222.019531 160.726562 219.195312 160.726562 Z M 219.195312 160.726562 " fill-opacity="1" fill-rule="nonzero"/><g clip-path="url(#88a7965a1d)"><path fill="#ffffff" d="M 236.632812 176.738281 C 233.808594 176.738281 231.515625 179.023438 231.515625 181.84375 L 231.515625 192.171875 C 231.515625 194.992188 233.808594 197.277344 236.632812 197.277344 C 239.460938 197.277344 241.753906 194.992188 241.753906 192.171875 L 241.753906 181.84375 C 241.753906 179.023438 239.460938 176.738281 236.632812 176.738281 Z M 236.632812 176.738281 " fill-opacity="1" fill-rule="nonzero"/></g><path fill="#ffffff" d="M 253.332031 160.015625 C 250.507812 160.015625 248.214844 162.300781 248.214844 165.121094 L 248.214844 208.894531 C 248.214844 211.710938 250.507812 213.996094 253.332031 213.996094 C 256.160156 213.996094 258.453125 211.710938 258.453125 208.894531 L 258.453125 165.121094 C 258.453125 162.300781 256.160156 160.015625 253.332031 160.015625 Z M 253.332031 160.015625 " fill-opacity="1" fill-rule="nonzero"/><g clip-path="url(#2d6ec30599)"><path fill="#ffffff" d="M 271.011719 176.738281 C 268.1875 176.738281 265.894531 179.023438 265.894531 181.84375 L 265.894531 192.171875 C 265.894531 194.992188 268.1875 197.277344 271.011719 197.277344 C 273.839844 197.277344 276.132812 194.992188 276.132812 192.171875 L 276.132812 181.84375 C 276.132812 179.023438 273.839844 176.738281 271.011719 176.738281 Z M 271.011719 176.738281 " fill-opacity="1" fill-rule="nonzero"/></g></svg>